<?xml version="1.0" encoding="UTF-8"?>
<svg id="Layer_2" data-name="Layer 2" xmlns="http://www.w3.org/2000/svg" viewBox="0 0 367.73 29.14">
  <defs>
    <style>
      .cls-1 {
        fill: #dba923;
      }

      .cls-2 {
        fill: none;
      }
    </style>
  </defs>
  <g id="Layer_1-2" data-name="Layer 1">
    <path class="cls-1" d="M317.14,16.31v6.48l-161.47.41c0-3.24.02-3.93,0-6.48l161.47-.41Z"/>
    <path class="cls-1" d="M337.38,22.66v6.48h-20.24c-.12-1.71-.03-3.65,0-6.48h20.24Z"/>
    <path class="cls-1" d="M360.46,13.16c-1.48,1.76,2.64,4.55,3.38,8.39-.2.46-.86.56-1.62.56-2.02,0-4.1-.66-6.02-1.47-3.04-1.26-5.62-2.88-7.13-5.16.82-1.88,1.96-3.21,3.3-4.02-.87-.94-1.67-1.93-2.43-2.96-1.45,1.73-2.47,3.49-2.95,5.21-1.82,6.37-4.76,8.95-8.5,8.95h-1.11c-2.73,0-3.54,1.87-3.54,3.09,0,1.37.76,3.39,3.54,3.39h.86c4.55,0,7.44-2.12,8.75-6.58h.35c5.01,3.69,10.02,5.97,15.03,5.97,2.43,0,4.3-1.92,5.36-6.53-.43-4.73-1.68-9.36-3.68-12.64-1.26,1.21-2.47,2.46-3.59,3.79Z"/>
    <path class="cls-1" d="M366.87,6.48v6.48h-6.57c0-3.24,0-3.93,0-6.48h6.57Z"/>
    <path class="cls-1" d="M360.73,0v6.48h-6.57c0-3.24,0-3.93,0-6.48h6.57Z"/>
    <path class="cls-1" d="M354.16,6v6.48h-6.57c0-3.24,0-3.93,0-6.48h6.57Z"/>
    <path class="cls-1" d="M330.28,16.31v6.48h-6.57c0-3.24,0-3.93,0-6.48h6.57Z"/>
    <path class="cls-1" d="M323.71,16.31v6.48h-6.57c0-3.24,0-3.93,0-6.48h6.57Z"/>
    <path class="cls-1" d="M161.47,16.69v6.48L0,23.57C0,20.33.02,19.64,0,17.09l161.47-.41Z"/>
    <rect class="cls-2" width="367.73" height="29.14"/>
  </g>
</svg>